<?xml version="1.0" standalone="no"?>
<!DOCTYPE svg PUBLIC "-//W3C//DTD SVG 20010904//EN"
 "http://www.w3.org/TR/2001/REC-SVG-20010904/DTD/svg10.dtd">
<svg version="1.0" xmlns="http://www.w3.org/2000/svg"
 width="300.000000pt" height="300.000000pt" viewBox="0 0 300.000000 300.000000"
 preserveAspectRatio="xMidYMid meet">
<metadata>
Created by potrace 1.14, written by Peter Selinger 2001-2017
</metadata>
<g transform="translate(0.000000,300.000000) scale(0.100000,-0.100000)"
fill="#000000" stroke="none">
<path d="M1395 2516 c-146 -46 -246 -158 -276 -308 -15 -74 0 -162 42 -244 31
-61 31 -62 19 -139 -32 -212 -139 -397 -304 -529 -67 -53 -69 -54 -144 -58
-293 -15 -459 -341 -300 -590 39 -62 88 -104 162 -139 55 -26 72 -29 161 -29
89 0 106 3 161 29 75 35 124 78 166 143 26 40 45 56 88 75 185 82 401 93 587
29 107 -37 141 -56 154 -89 18 -43 96 -118 159 -152 49 -26 66 -30 163 -33
108 -4 109 -4 182 32 134 66 207 177 213 324 6 115 -23 194 -97 275 -75 81
-150 117 -255 125 -94 6 -125 23 -225 123 -130 131 -206 285 -232 467 -10 72
-10 72 28 149 36 72 38 83 38 168 0 77 -4 99 -28 148 -53 115 -134 188 -247
221 -63 19 -159 20 -215 2z m199 -800 c183 -131 306 -343 331 -571 10 -89 -13
-124 -110 -164 -196 -82 -427 -82 -623 -2 -52 21 -74 37 -96 69 l-30 42 13 87
c30 209 150 408 321 535 85 62 111 63 194 4z"/>
</g>
</svg>
